# xmcd
#
# Track frame offsets: 
#        150
#        22555
#        40807
#        60448
#        77125
#        94049
#        112130
#        133543
#        152043
#        169659
#        189441
#        208884
#        235162
#        253324
#        272405
#        287257
#        305945
#        325501
#        339636
#
# Disc length: 4790 seconds
#
# Revision: 0
# Processed by: cddbd v1.5.2PL0 Copyright (c) Steve Scherf et al.
# Submitted via: ExactAudioCopyFreeDBPlugin 1.0
#
DISCID=0212b413
DTITLE=Snoop Dogg - The Best Of [disc 01]
DYEAR=2005
DGENRE=Hip-Hop
TTITLE0=Beautiful (feat. Pharrell and Uncle Charlie Wilson)
TTITLE1=Snoop Dogg (What's My Name Part 2)
TTITLE2=Woof! (feat. Mystikal and Fiend)
TTITLE3=Lay Low (feat. Master P, Nate Dogg, Butch Cassidy and Tha Eastsi
TTITLE3=daz)
TTITLE4=Down 4 My N's (feat. C-Murder and Magic)
TTITLE5=Snoop D.O. Double G
TTITLE6=From Tha Chuuuch To Da Palace (feat. Pharrell)
TTITLE7=Ups and Downs (feat. The Bee Gees)
TTITLE8=Bitch Please (feat. Xzibit)
TTITLE9=Step Yo Game Up (feat. Lil' Jon and Trina)
TTITLE10=Still A G Thang
TTITLE11=Perfect (feat. Charlie Wilson)
TTITLE12=Just Dippin' (feat. Dr. Dre and Jewell)
TTITLE13=Wrong Idea (feat. Bad Azz, KoKane and Lil HD)
TTITLE14=Promise I
TTITLE15=Oh No (feat. 50 Cent)
TTITLE16=Stoplight
TTITLE17=Can U Control Yo Hoe (feat. Soopafly)
TTITLE18=I'm Threw Witchu (feat. Soopafly)
EXTD=
EXTT0=
EXTT1=
EXTT2=
EXTT3=
EXTT4=
EXTT5=
EXTT6=
EXTT7=
EXTT8=
EXTT9=
EXTT10=
EXTT11=
EXTT12=
EXTT13=
EXTT14=
EXTT15=
EXTT16=
EXTT17=
EXTT18=
PLAYORDER=
